<?xml version="1.0" encoding="utf-8"?>
<!-- Generator: Adobe Illustrator 18.1.0, SVG Export Plug-In . SVG Version: 6.00 Build 0)  -->
<svg version="1.1" id="Layer_1" xmlns="http://www.w3.org/2000/svg" xmlns:xlink="http://www.w3.org/1999/xlink" x="0px" y="0px"
	 viewBox="0 0 144.8 184.7" enable-background="new 0 0 144.8 184.7" xml:space="preserve">
<linearGradient id="SVGID_1_" gradientUnits="userSpaceOnUse" x1="72.4688" y1="5.5001" x2="72.4688" y2="122.5078">
	<stop  offset="0" style="stop-color:#ED3535"/>
	<stop  offset="1" style="stop-color:#C90000"/>
</linearGradient>
<path fill="url(#SVGID_1_)" d="M140,72.3C140,35,109.8,4.7,72.5,4.7C35.2,4.7,4.9,35,4.9,72.3c0,18.4,7.4,35,19.3,47.2l48.4,60.2
	l49.5-61.6l0,0C133.2,106,140,89.9,140,72.3z"/>
<g>
	<g>
		<path fill="#FFFFFF" d="M72.5,130.5l12.5-70c11.9,0,15.6,1.3,16.2,6.6c0,0,8-3,12-9c-15.7-7.3-31.4-7.6-31.4-7.6l-9.2,11.2l0,0
			l-9.2-11.2c0,0-15.8,0.3-31.4,7.6c4,6,12,9,12,9c0.5-5.3,4.3-6.6,16.1-6.6L72.5,130.5z"/>
	</g>
	<g>
		<path fill="#FFFFFF" d="M72.5,47.3c12.7-0.1,27.2,2,42,8.4c2-3.6,2.5-5.1,2.5-5.1c-16.2-6.4-31.4-8.6-44.5-8.7l0,0
			c-13.1,0.1-28.3,2.3-44.5,8.7c0,0,0.7,1.9,2.5,5.1C45.3,49.2,59.8,47.2,72.5,47.3L72.5,47.3z"/>
	</g>
</g>
</svg>
